<svg version="1.1" id="Layer_1" xmlns="http://www.w3.org/2000/svg" xmlns:xlink="http://www.w3.org/1999/xlink" x="0px" y="0px"
	 viewBox="0 0 500 500" style="enable-background:new 0 0 500 500;" xml:space="preserve">
<style type="text/css">
	.st0{fill:#EAD9CE;}
	.nail{fill:#FFFFFF;stroke:#3A3A3A;stroke-width:1.5;stroke-miterlimit:10; transition:fill 0.2s ease;}
</style>
<path class="st0" d="M377.9,325.3c-27.9-19.1-41-50.6-47.5-80.6c-2.3-10.7-5.9-21.2-10.8-30.8c-1.8-3.6-3.8-7.2-6-10.6
	c-7.9-12.4-18.4-22.7-32.3-29.2c-12-5.6-25-7-37.9-4.2c-15.8,3.4-30.4,12.3-40.7,24.8c-8.9,10.7-14.7,23.8-16.7,37.8
	c-2,14.1-0.2,28.2,5.2,41.2c5.3,12.8,13.7,24,24.5,32.7c1,0.8,2,1.6,3,2.4c-2.9,13.8-3.3,28.2-1,42.4c3.8,23.3,15.8,44.7,33.8,60.2
	c15.1,13,33.5,21.1,53,23.2c25.4,2.8,50.7-3.2,71-16.3c19.1-12.2,33.2-30.5,39.8-51.2c3.5-11,4.9-22.5,4-33.9
	C410.1,363.5,397,341,377.9,325.3z"/>
<path class="st0" d="M309,105.1c-12.3-10.7-27.1-17.7-42.8-20.1c-15.6-2.4-31.2,0.1-45.5,7.1c-14,6.9-26,18.1-34.1,32.1
	c-9.1,15.8-13.6,33.5-12.7,51.3c0.7,14,4.5,27.6,11.2,39.9c5,9.2,11.5,17.4,19.2,24.1c4.5,3.9,9.4,7.4,14.6,10.4
	c-11.8-24.2-17.2-50.2-15.1-76.3c2.3-28.1,13.1-54.6,30.8-76.1C274.1,128.9,290.3,115.3,309,105.1z"/>
<path class="st0" d="M228.3,87.6c-13.4,0.3-26.6,4-38.2,10.9c-11.6,6.9-21.3,16.8-28.3,28.7c-7.6,12.9-12.1,27.5-13,42.5
	c-1.1,17.9,2,35.6,9.1,51.6c5.8,12.9,14.7,24.3,25.8,33.4c3.9,3.2,8,6,12.3,8.4c-4.9-25.2-3.2-51.5,5.6-76
	c9.8-26.7,26.7-49.3,48.7-65.4C258.4,115.1,244.2,87.2,228.3,87.6z"/>
<path class="st0" d="M149.2,126.9c-9.8,9.7-17.6,21.4-22.6,34.2c-5.7,14.4-8,30-6.4,45.4c1.8,17.1,8.5,33.4,19.3,47.1
	c5,6.3,10.6,12.1,16.9,17.1c0.1,0.1,0.2,0.2,0.3,0.3c6.9-27.3,15.2-53.8,24.5-79.3c5.5-15.2,11.3-30.2,17.4-45
	C188.7,133.7,169,120.4,149.2,126.9z"/>
<path id="nail-ring" class="nail" d="M296,69.5c-15.3-7.2-32.5-9.3-49-5.1c-15.4,3.9-29.2,13.1-39.2,25.9
	c-10.7,13.5-16.7,29.9-17,46.8c-0.3,15.8,4.4,31.5,13.3,44.8c11.2,16.7,28,28.2,47,32.4c17.5,3.8,35.8,0.7,51.8-8
	c14.6-7.9,26.6-20.2,34.4-35.2c6.1-11.8,9-25,8.2-38.3c-0.8-13.6-5.4-26.7-13.1-37.9c-8.4-12.3-20-21.8-33.3-27.7
	C302.2,74.7,299.1,72,296,69.5z"/>
<path id="nail-middle" class="nail" d="M208.5,47.9c-14.7-1.1-29.4,2.8-42,10.7c-12.6,7.9-22.8,19.4-29.1,32.9
	c-6.8,14.7-9.5,30.9-7.4,46.9c2.1,15.7,9.3,30.3,20.4,41.9c12.3,12.9,28.5,21,46,23.3c16.9,2.2,34-1.2,48.6-9.5
	c13.4-7.6,24.1-19,31.2-32.6c5.8-11.1,8.3-23.4,7.2-35.6c-1.2-12.8-6.3-24.9-14.5-34.9c-9-11-21-19.1-34.5-23.6
	C224.2,55.1,216.4,50.1,208.5,47.9z"/>
<path id="nail-index" class="nail" d="M129.5,85.2c-12.2,4-23.3,11.2-32,20.7c-9.2,10-15.6,22.2-18.1,35.4
	c-2.8,14.5-1.5,29.4,3.8,43.2c5.9,15.2,16.5,28.2,30.5,37.3c13.7,8.9,29.6,13.3,45.4,12.4c15.1-0.9,29.7-7,41.6-17.1
	c12.2-10.3,21.1-24,25.2-39.2c3.5-13.2,2.8-27-2-40c-5.2-14.1-14.7-26.2-27.3-34.8c-12.3-8.3-26.5-12.5-40.8-12.2
	C144.3,86,136.9,85.1,129.5,85.2z"/>
<g>
	<path id="nail-thumb" class="nail" d="M266.1,399.8c-13.8,24.6-43,39.3-70.4,36.5c-20.9-2.1-39.7-12.3-53.2-28.2
		c-14.1-16.7-22-37.6-21.9-59.2c0.1-21.7,8.6-42.6,23.8-58.6c16.1-17,37.6-27.6,60.5-29.6c26.9-2.4,53.8,7.3,72.4,26.1
		c19.6,19.8,29.4,46.5,27.1,73.1c-2.1,24.7-14.7,47.6-32.9,64.3C293.1,392.5,280.2,397.6,266.1,399.8z"/>
</g>
<path id="nail-pinky" class="nail" d="M370.2,284.1c-9.1-16.6-24-29.6-41.5-36.4c-16-6.3-33.5-7-49.9-1.8
	c-16.3,5.2-30.4,15.9-40,29.9c-8.9,12.9-13.2,28.1-12.2,43.4c1,15.4,7.8,30.1,19.1,41.6c11.7,11.9,27.1,19.3,43.4,21.1
	c16.1,1.8,32.4-1.9,46.5-9.8c14.2-7.9,25.9-20,33.5-34.6c6.2-12,9-25.5,7.9-39.1C415.7,314,402.4,292,370.2,284.1z"/>
</svg>
