<svg viewBox="0 0 400 400" xmlns="http://www.w3.org/2000/svg">
  <g stroke="#333" stroke-width="4" fill="none" stroke-linecap="round" stroke-linejoin="round">
    <path class="nail" d="M128,111 C128,101 136,95 145,95 C154,95 162,101 162,111 L158,180 L132,180 Z" fill="#F4C2C2" stroke-width="2"/>
    <path class="nail" d="M172,84 C172,74 180,68 189,68 C198,68 206,74 206,84 L202,175 L176,175 Z" fill="#F4C2C2" stroke-width="2"/>
    <path class="nail" d="M216,77 C216,67 224,61 233,61 C242,61 250,67 250,77 L246,177 L220,177 Z" fill="#F4C2C2" stroke-width="2"/>
    <path class="nail" d="M259,87 C259,77 267,71 276,71 C285,71 293,77 293,87 L289,170 L263,170 Z" fill="#F4C2C2" stroke-width="2"/>
    <path class="nail" d="M110,188 C106,180 108,170 116,166 C124,162 134,164 138,172 L150,200 L122,200 Z" fill="#F4C2C2" stroke-width="2"/>

    <path d="M158,180 C162,230 145,280 120,300 C150,290 170,330 180,350" fill="none"/>
    <path d="M158,180 L132,180 C128,111 136,95 145,95 C154,95 162,101 162,111" fill="none"/>
    <path d="M202,175 L176,175 C172,84 180,68 189,68 C198,68 206,74 206,84" fill="none"/>
    <path d="M246,177 L220,177 C216,77 224,61 233,61 C242,61 250,67 250,77" fill="none"/>
    <path d="M289,170 L263,170 C259,87 267,71 276,71 C285,71 293,77 293,87" fill="none"/>
    <path d="M289,170 C295,220 280,280 240,300 C260,290 280,330 290,350" fill="none"/>
    <path d="M150,200 L122,200 C108,200 95,215 95,230 C95,250 115,280 120,300" fill="none"/>
  </g>
</svg>
