<svg xmlns="http://www.w3.org/2000/svg" viewBox="0 0 500 500">
  <defs>
    <style>.nail{fill:#e6e6e6;stroke:#555;stroke-width:1;transition:fill 0.3s ease;}</style>
  </defs>
  <path d="M236.6,403.3c-2.4-10.6-3.8-21.6-4-32.8-1.1-23.8,4.3-48,15.8-69.2,11.2-20.6,28.2-37.4,49.1-48.4,5.9-3.1,12.5-5,18.8-6.1,17.1-3,34.8-1,51.1,5.3,18.8,7.3,34,20.8,45,38.3,13,20.8,19.3,45.2,17.4,69.5-1.5,19.2-8,37.8-18.4,53.7-4,6.2-8.8,11.8-14.4,16.7-12.7,11-28.1,18.6-45,21.9-20.5,3.9-42-1.3-59.5-11.4-13.8-8-25.2-19.8-33-33.1-2-3.4-3.7-7-5.1-10.6-2.2-5.7-4.1-11.6-5.4-17.6Z" style="fill:#f2d6c9;"/>
  <path d="M111.4,411.7c-4.3-15.5-6.5-31.8-6.5-48.3.1-33,8.4-66,24.3-95.2,13.6-25,33.8-45.7,58.8-60.1,6.5-3.8,13.8-6.6,21.2-8.3,23.3-5.3,47.9-2.9,69.9,6.7,24.5,10.7,44,28.9,56.7,52.1,14.6,26.7,21.1,57,18.3,87.2-2.2,24.3-10.6,47.6-24.1,67.6-5.2,7.7-11.5,14.6-18.8,20.5-16.7,13.4-36.9,22.1-58.5,25.2-26,3.7-52.9-2.2-75.3-15-18.1-10.4-33-25.2-44.1-42.3-2.8-4.3-5.2-8.9-7.2-13.6-3.4-7.8-6.2-16-8.2-24.3Z" style="fill:#f2d6c9;"/>
  <path d="M370.8,118.5c-1.5-2.7-3.2-5.2-4.9-7.7-12.2-17.7-28.7-32.3-48.1-42.1-23.7-12-50.2-16.4-76.5-12.3-27,4.2-51.5,17-70.3,36.4-18.1,18.7-29.5,43-32.2,69.2-.8,7.9-1.5,15.9-2,23.8-10.6,3.1-20.8,7.8-30,14.1-14.7,9.9-26.4,23.5-34.1,39.6-4.5,9.4-7.4,19.6-8.6,30.2-1.9,16.4.8,33.1,6.9,48.4,1.8,4.5,4,8.8,6.6,12.9,8,12.3,18.5,23,31,31.4,22.7,15.3,49.9,22.8,77.3,20.7,21.6-1.7,42.2-9,60.2-21.1,1.9-1.3,3.7-2.6,5.5-4,6.7,11.2,15.1,21.5,25.3,29.9,19.5,16.2,43.4,24.5,68.2,23.5,28-1.2,54.2-13.1,73.5-33.1,18.1-18.7,28.4-43.1,28.9-68.8.4-20.5-5.5-40.8-16.5-58.1-12.1-19-29-33.8-48.8-42.8-16.5-7.5-34.4-11-52.5-10-14,.8-27.8,4.1-40.6,9.7-10.8,4.7-20.9,10.8-29.8,18.1,7.9-24.3,20.3-47,36.6-65.7,12.1-13.9,26.7-25.2,42.9-33.3,2.4-1.2,4.8-2.3,7.2-3.4Z" style="fill:#f2d6c9;"/>
  <path id="nail-pinky" class="nail" d="M366.4,324.7c-3.1-1.6-6.1-3.5-8.9-5.6-3.8-2.8-7.3-6.1-10.4-9.6-6.5-7.4-11.4-16.4-14.3-25.9-1.5-4.8-2.3-9.8-2.4-14.9-.1-11.5,3.3-22.9,9.8-32.5,4-5.9,9.3-10.8,15.5-14.2,11.7-6.5,25.1-8.1,37.8-4.9,12.1,3.1,22.8,10.2,30.9,20.1,6.5,8,10.1,18,10.4,28.4.4,13.7-3,27.3-10.2,38.8-5,8-12,14.4-20.4,18.8-12.2,6.4-26.2,7.9-39.2,4.6-2.5-.6-4.9-1.4-7.3-2.3Z"/>
  <path id="nail-ring" class="nail" d="M266.1,148.8c-3.2-.2-6.4-.6-9.6-1.1-7-1.2-14-3.1-20.6-5.8-11.5-4.7-22-11.6-30.8-20.2-10.3-10-18.3-22.4-23-36-2.4-6.8-3.4-14-2.8-21.2,1.1-12.4,6.7-24.1,15.8-33.1,10.4-10.3,24-16.3,38.3-16.8,13-.5,25.9,3,36.9,10.2,10.4,6.7,18.7,16.4,24.1,28.1,4.4,9.5,6.1,20.1,4.9,30.4-1.6,13.2-8.1,25.6-18.2,35-9.6,9-21.7,14.7-34.9,15.5Z"/>
  <path id="nail-middle" class="nail" d="M121.7,219.8c-1.3-3-2.4-6.1-3.3-9.2-2.3-7.8-3.1-16-2.2-24.1.8-6.9,3.1-13.6,6.8-19.6,6-9.7,14.6-17.7,25.2-22.9,14.7-7.2,30.9-9.5,46.7-6.5,14.7,2.8,28.3,9.5,39.1,19.5,10,9.1,17.2,21,20.5,34,2.5,9.8,2.2,20-1,29.4-4.2,12.5-12.8,23.3-24.5,30.3-13.8,8.2-30,11.3-45.9,8.5-15.3-2.7-29.6-10.3-41.4-21.2-3.1-2.9-5.9-6.1-8.3-9.5Z"/>
  <path id="nail-index" class="nail" d="M85.9,328c-3.2-1.4-6.3-3-9.2-4.9-5.3-3.4-10-7.8-13.8-12.9-7.3-9.6-12-21.4-13.8-33.8-1-7.1-.9-14.3,0-21.4,1.8-12.9,7.6-25,16.8-34.5,10.1-10.5,23.5-17.3,37.8-19.2,13.1-1.8,26.4,1.3,37.6,8.5,10.3,6.6,18.6,16.4,23.9,28,4.2,9.2,5.5,19.4,3.8,29.3-2.2,12.8-9.2,24.4-19.7,32.7-11.7,9.2-26.3,13.7-41,12.4-4-.3-8-.9-11.9-1.8Z"/>
  <path id="nail-thumb" class="nail" d="M149.2,467.5c-15.6,2.2-31.5-1.1-45.2-9.4-11.4-6.9-21-17-27.7-29.1-5.1-9.4-8-20-8.3-30.8-.5-15.3,4.2-30.6,13-43.2,8.6-12.3,20.6-22,34.8-27.7,16.5-6.6,34.7-8.1,52.2-4.1,16,3.7,30.7,11.8,42.1,23,10.1,9.9,17.3,22.6,20.7,36.4,3.2,12.9,2.3,26.4-2.5,38.8-5.3,13.7-14.6,25.6-26.8,34.4-12,8.6-26,14-40.4,15.7-3.8.5-7.6.7-11.4.9Z"/>
</svg>
