<svg viewBox="0 0 800 600" xmlns="http://www.w3.org/2000/svg">
  <defs>
    <filter id="shadow" x="-20%" y="-20%" width="140%" height="140%">
      <feGaussianBlur in="SourceAlpha" stdDeviation="3" result="blur"/>
      <feOffset in="blur" dx="2" dy="2" result="offsetBlur"/>
      <feMerge>
        <feMergeNode in="offsetBlur"/>
        <feMergeNode in="SourceGraphic"/>
      </feMerge>
    </filter>
  </defs>
  <g transform="translate(150, 100) scale(1.2)">
    <path d="M213.9,258.2c-2.4-2.8-5.9-4.3-9.5-4.3c-2.4,0-4.8,0.7-7,2c-1,0.6-2,1.3-2.9,2.1c-22.1,21.5-49.8,32.4-81.2,32.4
      c-32.9,0-61.3-12.3-84.3-36.5c-1-1-2-2-3-3.1c-2.1-2.2-4.6-3.4-7.2-3.4c-3.6,0-7,1.5-9.3,4.1c-3.6,3.9-4.7,9.5-2.8,14.5
      c1.7,4.3,4.9,7.8,9.1,9.8c12.2,5.7,25.3,8.7,38.8,8.7c42.8,0,80.8-16.1,110.8-47.5c1.8-1.9,3.5-3.8,5.2-5.8
      C217.7,267.4,217.4,262.2,213.9,258.2z" fill="#E0BEA9" filter="url(#shadow)"/>
    <path d="M225.9,118.2c-1-6.1-5.2-11.2-10.9-13.2c-5.7-2-11.7-0.7-16.1,3.4c-2.4,2.2-4.2,4.9-5.4,7.9c-8.4,21.4-14,43.8-16.5,66.7
      c-0.2,1.5-0.3,3-0.5,4.5c-0.1,1.3-0.2,2.6-0.2,3.9c0,5.9,2.4,11.5,6.5,15.6c4.1,4.1,9.7,6.5,15.6,6.5c6.2,0,12-2.7,16-7.2
      c3.8-4.3,5.8-9.9,5.5-15.6c-0.1-2.4-0.5-4.8-1-7.1c-2.4-10.8-3.7-21.8-3.8-32.9c0.7-12.7,2.9-25.3,6.5-37.4
      C225.4,122.9,225.8,120.5,225.9,118.2z" fill="#E0BEA9" filter="url(#shadow)"/>
    <path class="nail" d="M182.9,98.9c-2.6-6.4-8.8-10.5-15.5-10.5c-9.1,0-16.9,6.7-18.1,15.6c-1,7.2,1.8,14.3,6.8,19.2
      c5.1,5,12.1,7.5,19.2,6.5c10-1.4,17.4-9.8,17.4-19.9C182.8,105.7,182.9,102.3,182.9,98.9z" fill="#F4C2C2"/>
    <path d="M168.1,121.7c-5-4.9-7.8-12-6.8-19.2c1.2-8.9,9-15.6,18.1-15.6c6.8,0,12.9,4.2,15.5,10.5c0,3.4-0.1,6.8-0.1,10.2
      c0,10.1-7.4,18.5-17.4,19.9c-0.3,0-0.6,0.1-0.8,0.1C174,127.6,170.9,125.1,168.1,121.7z" fill="#E0BEA9"/>
    <path d="M262.8,125.3c-2.4-6.1-8.1-10.2-14.5-10.2c-8.5,0-15.9,6.2-17.1,14.5c-1,6.7,1.7,13.4,6.4,17.9c4.7,4.6,11.2,6.9,17.9,5.9
      c9.3-1.3,16.2-9.1,16.2-18.4C261.8,131.9,262.5,128.6,262.8,125.3z" fill="#E0BEA9" filter="url(#shadow)"/>
    <path class="nail" d="M248.3,115.1c-6.4,0-12.1,4.1-14.5,10.2c-0.3,3.3-0.1,6.6,0.9,9.6c2.5,7.6,9.8,12.6,17.6,11.2
      c6.4-1.1,11.1-6.4,11.1-12.8C263.4,124.6,256.7,115.1,248.3,115.1z" fill="#F4C2C2"/>
    <path d="M248.3,117.1c7.3,0,13.1,6.7,13.1,14.9c0,5.7-3.9,10.5-9.3,11.7c-0.5,0.1-1,0.2-1.5,0.2c-5.1,0-9.8-3-11.8-7.7
      c-1.3-3.1-1.3-6.6,0-9.8C239.1,121.6,243.3,117.1,248.3,117.1z" fill="#E0BEA9"/>
    <path d="M247.9,152.1c-1.8-5.9-6.9-10-12.9-10c-7.3,0-13.6,5.5-14.6,12.9c-0.8,6.2,2,12.3,6.7,15.9c4.8,3.6,11,4.3,16.6,1.8
      c6.9-3.1,11.1-9.9,10.4-17.3C250.3,153.1,249.3,152.5,247.9,152.1z" fill="#E0BEA9" filter="url(#shadow)"/>
    <path class="nail" d="M235,142.1c-5.9,0-11.1,4.1-12.9,10c-2.3,7.6,2.1,15.4,9.6,17.7c5.6,1.7,11.7-0.4,15.2-5.4
      C251.3,158.2,250.3,148.9,235,142.1z" fill="#F4C2C2"/>
    <path d="M235,144.1c4.5,0,8.6,2.6,10.5,6.7c1.3,2.8,1.5,6,0.5,8.8c-1.6,4.5-5.9,7.4-10.7,7.4c-0.8,0-1.6-0.1-2.4-0.3
      c-5.1-1.3-8.3-6-7.8-11.1C226.2,148.8,230.2,144.1,235,144.1z" fill="#E0BEA9"/>
  </g>
</svg>
