<svg viewBox="0 0 500 500" xmlns="http://www.w3.org/2000/svg">
  <defs>
    <filter id="soft-shadow" x="-50%" y="-50%" width="200%" height="200%">
      <feDropShadow dx="3" dy="5" stdDeviation="5" flood-color="#000000" flood-opacity="0.15"/>
    </filter>
  </defs>
  <g transform="translate(50, 80)" filter="url(#soft-shadow)">
    <path fill="#F2D6C2" d="M208.2,308.2c-54.8-24.5-85.7-74.7-85.7-129.4V93.9c0-14.9,4.4-28.9,12.5-40.8c5.9-8.6,14-15.6,23.5-20.1
      c9-4.2,18.9-6.3,29-6.3c14.6,0,28.3,5.6,38.5,15.5l0,0c8.1,7.8,12.8,18.5,12.8,29.9v28.8c0,16.5-13.4,29.9-29.9,29.9
      s-29.9-13.4-29.9-29.9V93.9c0-5-1.9-9.5-5.3-12.9c-3.4-3.4-7.9-5.3-12.8-5.3c-5,0-9.6,2-12.9,5.4c-3.3,3.4-5.2,8-5.2,12.8v84.9
      c0,42.5,25,81.1,66,105.1c3.5,2.1,5.8,5.8,5.8,9.9v1.9c0,6.6-5.4,12-12,12h-0.2C213.6,314,208.9,311.8,208.2,308.2z"/>
    <path fill="#F2D6C2" d="M118.9,121.8c-2-12.3,5-24.2,16.6-28.3c11.6-4.1,24.2-0.4,31.7,9.1c5,6.3,7.8,14.3,7.8,22.6v94.9
      c0,13.2-10.7,23.9-23.9,23.9s-23.9-10.7-23.9-23.9v-94.9C127.1,123.3,126.1,122.2,118.9,121.8z"/>
    <path fill="#F2D6C2" d="M157,103.2c-2.3-12.2,4.2-24.2,15.7-28.5c11.5-4.3,24.1-0.9,31.7,8.4c5.3,6.5,8.3,14.8,8.3,23.5v109.2
      c0,13.2-10.7,23.9-23.9,23.9c-13.2,0-23.9-10.7-23.9-23.9V103.2z"/>
    <path fill="#F2D6C2" d="M197.3,97.7c-2.3-12.2,4.2-24.2,15.7-28.5c11.5-4.3,24.1-0.9,31.7,8.4c5.3,6.5,8.3,14.8,8.3,23.5v116.4
      c0,13.2-10.7,23.9-23.9,23.9s-23.9-10.7-23.9-23.9V97.7z"/>
    
    <path class="nail" fill="#F4C2C2" d="M109.8,103.6c-5.8-2.3-12.3,0.7-15,6.5c-2.7,5.8-0.7,12.3,5,15c5.8,2.7,12.3-0.7,15-6.5C117.5,113.4,115.6,105.9,109.8,103.6z"/>
    <path class="nail" fill="#F4C2C2" d="M149.2,80.7c-5.8-2.3-12.3,0.7-15,6.5c-2.7,5.8-0.7,12.3,5,15c5.8,2.7,12.3-0.7,15-6.5C156.8,90.4,155,82.9,149.2,80.7z"/>
    <path class="nail" fill="#F4C2C2" d="M189.2,74.9c-5.8-2.3-12.3,0.7-15,6.5c-2.7,5.8-0.7,12.3,5,15c5.8,2.7,12.3-0.7,15-6.5C196.8,84.6,195,77.1,189.2,74.9z"/>
    <path class="nail" fill="#F4C2C2" d="M228,70.1c-5.8-2.3-12.3,0.7-15,6.5c-2.7,5.8-0.7,12.3,5,15c5.8,2.7,12.3-0.7,15-6.5C235.7,79.8,233.8,72.3,228,70.1z"/>
    <path class="nail" fill="#F4C2C2" d="M198,24.8c-2.5-3.1-6.8-4-10.3-2.1c-3.5,1.9-5.1,6-4.2,9.6c0.9,3.6,4,6.2,7.7,6.2c0.8,0,1.7-0.1,2.5-0.4C200,36.1,202.6,29.9,198,24.8z"/>
  </g>
</svg>
